<svg xmlns="http://www.w3.org/2000/svg">
<symbol id="facebook-1" viewBox="0 0 512 512"><path d="M512 256C512 114.6 397.4 0 256 0S0 114.6 0 256C0 376 82.7 476.8 194.2 504.5l0-170.3-52.8 0 0-78.2 52.8 0 0-33.7c0-87.1 39.4-127.5 125-127.5 16.2 0 44.2 3.2 55.7 6.4l0 70.8c-6-.6-16.5-1-29.6-1-42 0-58.2 15.9-58.2 57.2l0 27.8 83.6 0-14.4 78.2-69.3 0 0 175.9C413.8 494.8 512 386.9 512 256z"/></symbol>
<symbol id="facebook-2" viewBox="0 0 448 512"><path d="M64 32C28.7 32 0 60.7 0 96L0 416c0 35.3 28.7 64 64 64l98.2 0 0-145.8-52.8 0 0-78.2 52.8 0 0-33.7c0-87.1 39.4-127.5 125-127.5 16.2 0 44.2 3.2 55.7 6.4l0 70.8c-6-.6-16.5-1-29.6-1-42 0-58.2 15.9-58.2 57.2l0 27.8 83.6 0-14.4 78.2-69.3 0 0 145.8 129 0c35.3 0 64-28.7 64-64l0-320c0-35.3-28.7-64-64-64L64 32z"/></symbol>
<symbol id="facebook-3" viewBox="0 0 320 512"><path d="M80 299.3l0 212.7 116 0 0-212.7 86.5 0 18-97.8-104.5 0 0-34.6c0-51.7 20.3-71.5 72.7-71.5 16.3 0 29.4 .4 37 1.2l0-88.7C291.4 4 256.4 0 236.2 0 129.3 0 80 50.5 80 159.4l0 42.1-66 0 0 97.8 66 0z"/></symbol>
<symbol id="instagram-1" viewBox="0 0 448 512"><path d="M224.3 141a115 115 0 1 0 -.6 230 115 115 0 1 0 .6-230zm-.6 40.4a74.6 74.6 0 1 1 .6 149.2 74.6 74.6 0 1 1 -.6-149.2zm93.4-45.1a26.8 26.8 0 1 1 53.6 0 26.8 26.8 0 1 1 -53.6 0zm129.7 27.2c-1.7-35.9-9.9-67.7-36.2-93.9-26.2-26.2-58-34.4-93.9-36.2-37-2.1-147.9-2.1-184.9 0-35.8 1.7-67.6 9.9-93.9 36.1s-34.4 58-36.2 93.9c-2.1 37-2.1 147.9 0 184.9 1.7 35.9 9.9 67.7 36.2 93.9s58 34.4 93.9 36.2c37 2.1 147.9 2.1 184.9 0 35.9-1.7 67.7-9.9 93.9-36.2 26.2-26.2 34.4-58 36.2-93.9 2.1-37 2.1-147.8 0-184.8zM399 388c-7.8 19.6-22.9 34.7-42.6 42.6-29.5 11.7-99.5 9-132.1 9s-102.7 2.6-132.1-9c-19.6-7.8-34.7-22.9-42.6-42.6-11.7-29.5-9-99.5-9-132.1s-2.6-102.7 9-132.1c7.8-19.6 22.9-34.7 42.6-42.6 29.5-11.7 99.5-9 132.1-9s102.7-2.6 132.1 9c19.6 7.8 34.7 22.9 42.6 42.6 11.7 29.5 9 99.5 9 132.1s2.7 102.7-9 132.1z"/></symbol>
<symbol id="instagram-2" viewBox="0 0 448 512"><path d="M194.4 211.7a53.3 53.3 0 1 0 59.2 88.6 53.3 53.3 0 1 0 -59.2-88.6zm142.3-68.4c-5.2-5.2-11.5-9.3-18.4-12-18.1-7.1-57.6-6.8-83.1-6.5-4.1 0-7.9 .1-11.2 .1s-7.2 0-11.4-.1c-25.5-.3-64.8-.7-82.9 6.5-6.9 2.7-13.1 6.8-18.4 12s-9.3 11.5-12 18.4c-7.1 18.1-6.7 57.7-6.5 83.2 0 4.1 .1 7.9 .1 11.1s0 7-.1 11.1c-.2 25.5-.6 65.1 6.5 83.2 2.7 6.9 6.8 13.1 12 18.4s11.5 9.3 18.4 12c18.1 7.1 57.6 6.8 83.1 6.5 4.1 0 7.9-.1 11.2-.1s7.2 0 11.4 .1c25.5 .3 64.8 .7 82.9-6.5 6.9-2.7 13.1-6.8 18.4-12s9.3-11.5 12-18.4c7.2-18 6.8-57.4 6.5-83 0-4.2-.1-8.1-.1-11.4s0-7.1 .1-11.4c.3-25.5 .7-64.9-6.5-83-2.7-6.9-6.8-13.1-12-18.4l0 .2zm-67.1 44.5c18.1 12.1 30.6 30.9 34.9 52.2s-.2 43.5-12.3 61.6c-6 9-13.7 16.6-22.6 22.6s-19 10.1-29.6 12.2c-21.3 4.2-43.5-.2-61.6-12.3s-30.6-30.9-34.9-52.2 .2-43.5 12.2-61.6 30.9-30.6 52.2-34.9 43.5 .2 61.6 12.2l.1 0zm29.2-1.3c-3.1-2.1-5.6-5.1-7.1-8.6s-1.8-7.3-1.1-11.1 2.6-7.1 5.2-9.8 6.1-4.5 9.8-5.2 7.6-.4 11.1 1.1 6.5 3.9 8.6 7 3.2 6.8 3.2 10.6c0 2.5-.5 5-1.4 7.3s-2.4 4.4-4.1 6.2-3.9 3.2-6.2 4.2-4.8 1.5-7.3 1.5c-3.8 0-7.5-1.1-10.6-3.2l-.1 0zM448 96c0-35.3-28.7-64-64-64L64 32C28.7 32 0 60.7 0 96L0 416c0 35.3 28.7 64 64 64l320 0c35.3 0 64-28.7 64-64l0-320zM357 389c-18.7 18.7-41.4 24.6-67 25.9-26.4 1.5-105.6 1.5-132 0-25.6-1.3-48.3-7.2-67-25.9s-24.6-41.4-25.8-67c-1.5-26.4-1.5-105.6 0-132 1.3-25.6 7.1-48.3 25.8-67s41.5-24.6 67-25.8c26.4-1.5 105.6-1.5 132 0 25.6 1.3 48.3 7.1 67 25.8s24.6 41.4 25.8 67c1.5 26.3 1.5 105.4 0 131.9-1.3 25.6-7.1 48.3-25.8 67l0 .1z"/></symbol>
<symbol id="twitter-x-1" viewBox="0 0 448 512"><path d="M357.2 48L427.8 48 273.6 224.2 455 464 313 464 201.7 318.6 74.5 464 3.8 464 168.7 275.5-5.2 48 140.4 48 240.9 180.9 357.2 48zM332.4 421.8l39.1 0-252.4-333.8-42 0 255.3 333.8z"/></symbol>
<symbol id="twitter-x-2" viewBox="0 0 448 512"><path d="M64 32C28.7 32 0 60.7 0 96L0 416c0 35.3 28.7 64 64 64l320 0c35.3 0 64-28.7 64-64l0-320c0-35.3-28.7-64-64-64L64 32zm297.1 84l-103.8 118.6 122.1 161.4-95.6 0-74.8-97.9-85.7 97.9-47.5 0 111-126.9-117.1-153.1 98 0 67.7 89.5 78.2-89.5 47.5 0zM323.3 367.6l-169.9-224.7-28.3 0 171.8 224.7 26.4 0z"/></symbol>
<symbol id="tiktok-1" viewBox="0 0 448 512"><path d="M448.5 209.9c-44 .1-87-13.6-122.8-39.2l0 178.7c0 33.1-10.1 65.4-29 92.6s-45.6 48-76.6 59.6-64.8 13.5-96.9 5.3-60.9-25.9-82.7-50.8-35.3-56-39-88.9 2.9-66.1 18.6-95.2 40-52.7 69.6-67.7 62.9-20.5 95.7-16l0 89.9c-15-4.7-31.1-4.6-46 .4s-27.9 14.6-37 27.3-14 28.1-13.9 43.9 5.2 31 14.5 43.7 22.4 22.1 37.4 26.9 31.1 4.8 46-.1 28-14.4 37.2-27.1 14.2-28.1 14.2-43.8l0-349.4 88 0c-.1 7.4 .6 14.9 1.9 22.2 3.1 16.3 9.4 31.9 18.7 45.7s21.3 25.6 35.2 34.6c19.9 13.1 43.2 20.1 67 20.1l0 87.4z"/></symbol>
<symbol id="pinterest-1" viewBox="0 0 512 512"><path d="M504 256c0 137-111 248-248 248-25.6 0-50.2-3.9-73.4-11.1 10.1-16.5 25.2-43.5 30.8-65 3-11.6 15.4-59 15.4-59 8.1 15.4 31.7 28.5 56.8 28.5 74.8 0 128.7-68.8 128.7-154.3 0-81.9-66.9-143.2-152.9-143.2-107 0-163.9 71.8-163.9 150.1 0 36.4 19.4 81.7 50.3 96.1 4.7 2.2 7.2 1.2 8.3-3.3 .8-3.4 5-20.3 6.9-28.1 .6-2.5 .3-4.7-1.7-7.1-10.1-12.5-18.3-35.3-18.3-56.6 0-54.7 41.4-107.6 112-107.6 60.9 0 103.6 41.5 103.6 100.9 0 67.1-33.9 113.6-78 113.6-24.3 0-42.6-20.1-36.7-44.8 7-29.5 20.5-61.3 20.5-82.6 0-19-10.2-34.9-31.4-34.9-24.9 0-44.9 25.7-44.9 60.2 0 22 7.4 36.8 7.4 36.8s-24.5 103.8-29 123.2C161.5 437.2 163.5 467.4 165.6 487 73.4 450.9 8 361.1 8 256 8 119 119 8 256 8S504 119 504 256z"/></symbol>
<symbol id="pinterest-2" viewBox="0 0 384 512"><path d="M204 6.5c-102.6 0-204 68.4-204 179.1 0 70.4 39.6 110.4 63.6 110.4 9.9 0 15.6-27.6 15.6-35.4 0-9.3-23.7-29.1-23.7-67.8 0-80.4 61.2-137.4 140.4-137.4 68.1 0 118.5 38.7 118.5 109.8 0 53.1-21.3 152.7-90.3 152.7-24.9 0-46.2-18-46.2-43.8 0-37.8 26.4-74.4 26.4-113.4 0-66.2-93.9-54.2-93.9 25.8 0 16.8 2.1 35.4 9.6 50.7-13.8 59.4-42 147.9-42 209.1 0 18.9 2.7 37.5 4.5 56.4 3.4 3.8 1.7 3.4 6.9 1.5 50.4-69 48.6-82.5 71.4-172.8 12.3 23.4 44.1 36 69.3 36 106.2 0 153.9-103.5 153.9-196.8 0-99.3-85.8-164.1-180-164.1z"/></symbol>
<symbol id="pinterest-3" viewBox="0 0 448 512"><path d="M384 32L64 32C28.7 32 0 60.7 0 96L0 416c0 35.3 28.7 64 64 64l72.6 0-2.2-.8c-5.4-48.1-3.1-57.5 15.7-134.7 3.9-16 8.5-35 13.9-57.9 0 0-7.3-14.8-7.3-36.5 0-70.7 75.5-78 75.5-25 0 13.5-5.4 31.1-11.2 49.8-3.3 10.6-6.6 21.5-9.1 32-5.7 24.5 12.3 44.4 36.4 44.4 43.7 0 77.2-46 77.2-112.4 0-58.8-42.3-99.9-102.6-99.9-69.9 0-110.9 52.4-110.9 106.6 0 21.1 8.2 43.7 18.3 56 2 2.4 2.3 4.5 1.7 7-1.1 4.7-3.1 12.9-4.7 19.2-1 4-1.8 7.3-2.1 8.6-1.1 4.5-3.5 5.5-8.2 3.3-30.6-14.3-49.8-59.1-49.8-95.1 0-77.5 56.2-148.6 162.2-148.6 85.2 0 151.4 60.7 151.4 141.8 0 84.6-53.3 152.7-127.4 152.7-24.9 0-48.3-12.9-56.3-28.2 0 0-12.3 46.9-15.3 58.4-5 19.3-17.6 42.9-27.4 59.3L384 480c35.3 0 64-28.7 64-64l0-320c0-35.3-28.7-64-64-64z"/></symbol>
<symbol id="google-tv" viewBox="0 -960 960 960"><path d="M320-120v-80H160q-33 0-56.5-23.5T80-280v-480q0-33 23.5-56.5T160-840h640q33 0 56.5 23.5T880-760v480q0 33-23.5 56.5T800-200H640v80H320ZM160-280h640v-480H160v480Zm0 0v-480 480Z"/></symbol>
<symbol id="google-sports-basketball" viewBox="0 -960 960 960"><path d="M162-520h114q-6-38-23-71t-43-59q-18 29-30.5 61.5T162-520Zm522 0h114q-5-36-17.5-68.5T750-650q-26 26-43 59t-23 71ZM210-310q26-26 43-59t23-71H162q5 36 17.5 68.5T210-310Zm540 0q18-29 30.5-61.5T798-440H684q6 38 23 71t43 59ZM358-520h82v-278q-53 8-98.5 29.5T260-712q39 38 64.5 86.5T358-520Zm162 0h82q8-57 33.5-105.5T700-712q-36-35-81.5-56.5T520-798v278Zm-80 358v-278h-82q-8 57-33.5 105.5T260-248q36 35 81.5 56.5T440-162Zm80 0q53-8 98.5-29.5T700-248q-39-38-64.5-86.5T602-440h-82v278Zm-40-318Zm0 400q-83 0-156-31.5T197-197q-54-54-85.5-127T80-480q0-83 31.5-156T197-763q54-54 127-85.5T480-880q83 0 156 31.5T763-763q54 54 85.5 127T880-480q0 83-31.5 156T763-197q-54 54-127 85.5T480-80Z"/></symbol>
<symbol id="google-speaker" viewBox="0 -960 960 960"><path d="M680-80H280q-33 0-56.5-23.5T200-160v-640q0-33 23.5-56.5T280-880h400q33 0 56.5 23.5T760-800v640q0 33-23.5 56.5T680-80Zm0-80v-640H280v640h400ZM536.5-623.5Q560-647 560-680t-23.5-56.5Q513-760 480-760t-56.5 23.5Q400-713 400-680t23.5 56.5Q447-600 480-600t56.5-23.5ZM593-247q47-47 47-113t-47-113q-47-47-113-47t-113 47q-47 47-47 113t47 113q47 47 113 47t113-47Zm-169.5-56.5Q400-327 400-360t23.5-56.5Q447-440 480-440t56.5 23.5Q560-393 560-360t-23.5 56.5Q513-280 480-280t-56.5-23.5ZM280-800v640-640Z"/></symbol>
<symbol id="google-shower" viewBox="0 -960 960 960"><path d="M320-240q-17 0-28.5-11.5T280-280q0-17 11.5-28.5T320-320q17 0 28.5 11.5T360-280q0 17-11.5 28.5T320-240Zm160 0q-17 0-28.5-11.5T440-280q0-17 11.5-28.5T480-320q17 0 28.5 11.5T520-280q0 17-11.5 28.5T480-240Zm160 0q-17 0-28.5-11.5T600-280q0-17 11.5-28.5T640-320q17 0 28.5 11.5T680-280q0 17-11.5 28.5T640-240ZM200-400v-80q0-106 68-184t172-92v-84h80v84q104 14 172 92t68 184v80H200Zm80-80h400q0-83-58.5-141.5T480-680q-83 0-141.5 58.5T280-480Zm40 360q-17 0-28.5-11.5T280-160q0-17 11.5-28.5T320-200q17 0 28.5 11.5T360-160q0 17-11.5 28.5T320-120Zm160 0q-17 0-28.5-11.5T440-160q0-17 11.5-28.5T480-200q17 0 28.5 11.5T520-160q0 17-11.5 28.5T480-120Zm160 0q-17 0-28.5-11.5T600-160q0-17 11.5-28.5T640-200q17 0 28.5 11.5T680-160q0 17-11.5 28.5T640-120ZM480-480Z"/></symbol>
<symbol id="google-photo-camera" viewBox="0 -960 960 960"><path d="M480-260q75 0 127.5-52.5T660-440q0-75-52.5-127.5T480-620q-75 0-127.5 52.5T300-440q0 75 52.5 127.5T480-260Zm0-80q-42 0-71-29t-29-71q0-42 29-71t71-29q42 0 71 29t29 71q0 42-29 71t-71 29ZM160-120q-33 0-56.5-23.5T80-200v-480q0-33 23.5-56.5T160-760h126l74-80h240l74 80h126q33 0 56.5 23.5T880-680v480q0 33-23.5 56.5T800-120H160Zm0-80h640v-480H638l-73-80H395l-73 80H160v480Zm320-240Z"/></symbol>
<symbol id="google-phone-in-talk" viewBox="0 -960 960 960"><path d="M760-480q0-117-81.5-198.5T480-760v-80q75 0 140.5 28.5t114 77q48.5 48.5 77 114T840-480h-80Zm-160 0q0-50-35-85t-85-35v-80q83 0 141.5 58.5T680-480h-80Zm198 360q-125 0-247-54.5T329-329Q229-429 174.5-551T120-798q0-18 12-30t30-12h162q14 0 25 9.5t13 22.5l26 140q2 16-1 27t-11 19l-97 98q20 37 47.5 71.5T387-386q31 31 65 57.5t72 48.5l94-94q9-9 23.5-13.5T670-390l138 28q14 4 23 14.5t9 23.5v162q0 18-12 30t-30 12ZM241-600l66-66-17-94h-89q5 41 14 81t26 79Zm358 358q39 17 79.5 27t81.5 13v-88l-94-19-67 67ZM241-600Zm358 358Z"/></symbol>
<symbol id="google-memory" viewBox="0 -960 960 960"><path d="M360-360v-240h240v240H360Zm80-80h80v-80h-80v80Zm-80 320v-80h-80q-33 0-56.5-23.5T200-280v-80h-80v-80h80v-80h-80v-80h80v-80q0-33 23.5-56.5T280-760h80v-80h80v80h80v-80h80v80h80q33 0 56.5 23.5T760-680v80h80v80h-80v80h80v80h-80v80q0 33-23.5 56.5T680-200h-80v80h-80v-80h-80v80h-80Zm320-160v-400H280v400h400ZM480-480Z"/></symbol>
<symbol id="google-local-laundry-service" viewBox="0 -960 960 960"><path d="M240-80q-33 0-56.5-23.5T160-160v-640q0-33 23.5-56.5T240-880h480q33 0 56.5 23.5T800-800v640q0 33-23.5 56.5T720-80H240Zm0-80h480v-640H240v640Zm381.5-98.5Q680-317 680-400t-58.5-141.5Q563-600 480-600t-141.5 58.5Q280-483 280-400t58.5 141.5Q397-200 480-200t141.5-58.5ZM480-268q-26 0-50.5-9.5T386-306l188-188q19 19 28.5 43.5T612-400q0 55-38.5 93.5T480-268ZM320-680q17 0 28.5-11.5T360-720q0-17-11.5-28.5T320-760q-17 0-28.5 11.5T280-720q0 17 11.5 28.5T320-680Zm148.5-11.5Q480-703 480-720t-11.5-28.5Q457-760 440-760t-28.5 11.5Q400-737 400-720t11.5 28.5Q423-680 440-680t28.5-11.5ZM240-160v-640 640Z"/></symbol>
<symbol id="google-imagesearch-roller" viewBox="0 -960 960 960"><path d="M600-40H440q-17 0-28.5-11.5T400-80v-240q0-17 11.5-28.5T440-360h40v-120H160q-33 0-56.5-23.5T80-560v-160q0-33 23.5-56.5T160-800h80v-40q0-17 11.5-28.5T280-880h480q17 0 28.5 11.5T800-840v160q0 17-11.5 28.5T760-640H280q-17 0-28.5-11.5T240-680v-40h-80v160h320q33 0 56.5 23.5T560-480v120h40q17 0 28.5 11.5T640-320v240q0 17-11.5 28.5T600-40Zm-120-80h80v-160h-80v160ZM320-720h400v-80H320v80Zm160 600h80-80ZM320-720v-80 80Z"/></symbol>
<symbol id="google-house" viewBox="0 -960 960 960"><path d="M200-160v-366L88-440l-48-64 440-336 160 122v-82h120v174l160 122-48 64-112-86v366H520v-240h-80v240H200Zm80-80h80v-240h240v240h80v-347L480-739 280-587v347Zm120-319h160q0-32-24-52.5T480-632q-32 0-56 20.5T400-559Zm-40 319v-240h240v240-240H360v240Z"/></symbol>
<symbol id="google-health-and-beauty" viewBox="0 -960 960 960"><path d="M200-80 40-520l200-120v-240h160v240l200 120L440-80H200Zm480 0q-17 0-28.5-11.5T640-120q0-17 11.5-28.5T680-160h120v-80H680q-17 0-28.5-11.5T640-280q0-17 11.5-28.5T680-320h120v-80H680q-17 0-28.5-11.5T640-440q0-17 11.5-28.5T680-480h120v-80H680q-17 0-28.5-11.5T640-600q0-17 11.5-28.5T680-640h120v-80H680q-17 0-28.5-11.5T640-760q0-17 11.5-28.5T680-800h160q33 0 56.5 23.5T920-720v560q0 33-23.5 56.5T840-80H680Zm-424-80h128l118-326-124-74H262l-124 74 118 326Zm64-200Z"/></symbol>
<symbol id="google-handyman" viewBox="0 -960 960 960"><path d="M739-83.5q-7-2.5-13-8.5L522-296q-6-6-8.5-13t-2.5-15q0-8 2.5-15t8.5-13l85-85q6-6 13-8.5t15-2.5q8 0 15 2.5t13 8.5l204 204q6 6 8.5 13t2.5 15q0 8-2.5 15t-8.5 13l-85 85q-6 6-13 8.5T754-81q-8 0-15-2.5Zm15-92.5 29-29-147-147-29 29 147 147ZM189.5-83q-7.5-3-13.5-9l-84-84q-6-6-9-13.5T80-205q0-8 3-15t9-13l212-212h85l34-34-165-165h-57L80-765l113-113 121 121v57l165 165 116-116-43-43 56-56H495l-28-28 142-142 28 28v113l56-56 142 142q17 17 26 38.5t9 45.5q0 24-9 46t-26 39l-85-85-56 56-42-42-207 207v84L233-92q-6 6-13 9t-15 3q-8 0-15.5-3Zm15.5-93 170-170v-29h-29L176-205l29 29Zm0 0-29-29 15 14 14 15Zm549 0 29-29-29 29Z"/></symbol>
<symbol id="google-emoji-objects" viewBox="0 -960 960 960"><path d="M480-80q-26 0-47-12.5T400-126q-33 0-56.5-23.5T320-206v-142q-59-39-94.5-103T190-590q0-121 84.5-205.5T480-880q121 0 205.5 84.5T770-590q0 77-35.5 140T640-348v142q0 33-23.5 56.5T560-126q-12 21-33 33.5T480-80Zm-80-126h160v-36H400v36Zm0-76h160v-38H400v38Zm-8-118h58v-108l-88-88 42-42 76 76 76-76 42 42-88 88v108h58q54-26 88-76.5T690-590q0-88-61-149t-149-61q-88 0-149 61t-61 149q0 63 34 113.5t88 76.5Zm88-162Zm0-38Z"/></symbol>
<symbol id="google-directions-car" viewBox="0 -960 960 960"><path d="M240-200v40q0 17-11.5 28.5T200-120h-40q-17 0-28.5-11.5T120-160v-320l84-240q6-18 21.5-29t34.5-11h440q19 0 34.5 11t21.5 29l84 240v320q0 17-11.5 28.5T800-120h-40q-17 0-28.5-11.5T720-160v-40H240Zm-8-360h496l-42-120H274l-42 120Zm-32 80v200-200Zm100 160q25 0 42.5-17.5T360-380q0-25-17.5-42.5T300-440q-25 0-42.5 17.5T240-380q0 25 17.5 42.5T300-320Zm360 0q25 0 42.5-17.5T720-380q0-25-17.5-42.5T660-440q-25 0-42.5 17.5T600-380q0 25 17.5 42.5T660-320Zm-460 40h560v-200H200v200Z"/></symbol>
<symbol id="google-deck" viewBox="0 -960 960 960"><path d="M440-80v-520H80l400-280 400 280H520v520h-80Zm40-600h146-292 146ZM120-80v-210L88-466l78-14 30 160h164v240h-80v-160h-80v160h-80Zm480 0v-240h164l30-160 78 14-32 176v210h-80v-160h-80v160h-80ZM334-680h292L480-782 334-680Z"/></symbol>
<symbol id="google-computer" viewBox="0 -960 960 960"><path d="M40-120v-80h880v80H40Zm120-120q-33 0-56.5-23.5T80-320v-440q0-33 23.5-56.5T160-840h640q33 0 56.5 23.5T880-760v440q0 33-23.5 56.5T800-240H160Zm0-80h640v-440H160v440Zm0 0v-440 440Z"/></symbol>
</svg>
