<?xml version="1.0" encoding="UTF-8" standalone="no"?>
<svg
   width="600"
   height="251.25"
   viewBox="0 0 768.75 322.5"
   fill="none"
   version="1.1"
   id="svg45"
   sodipodi:docname="Kupujemprodajem_logo.svg"
   inkscape:version="1.2.1 (9c6d41e410, 2022-07-14, custom)"
   xmlns:inkscape="http://www.inkscape.org/namespaces/inkscape"
   xmlns:sodipodi="http://sodipodi.sourceforge.net/DTD/sodipodi-0.dtd"
   xmlns="http://www.w3.org/2000/svg"
   xmlns:svg="http://www.w3.org/2000/svg">
  <sodipodi:namedview
     id="namedview47"
     pagecolor="#ffffff"
     bordercolor="#666666"
     borderopacity="1.0"
     inkscape:showpageshadow="2"
     inkscape:pageopacity="0.0"
     inkscape:pagecheckerboard="0"
     inkscape:deskcolor="#d1d1d1"
     showgrid="false"
     inkscape:zoom="1.2453522"
     inkscape:cx="284.65842"
     inkscape:cy="105.19112"
     inkscape:window-width="1920"
     inkscape:window-height="1012"
     inkscape:window-x="0"
     inkscape:window-y="0"
     inkscape:window-maximized="1"
     inkscape:current-layer="svg45" />
  <g
     clipPath="url(#clip0)"
     id="g38"
     transform="scale(3.7646103)">
    <path
       d="m 96.07,42.5798 c -1.6339,1.0386 -3.5341,1.5805 -5.47,1.56 -1.3531,0.0143 -2.6945,-0.2513 -3.94,-0.78 v 4.64 C 85.9778,47.0968 85.1017,46.3584 84.0961,45.8392 83.0905,45.32 81.9812,45.0331 80.85,44.9998 c -7.32,0 -9.7,8 -9.7,15.55 0,7.31 2.43,15.25 9.42,15.25 3,0 5.09,-1.28 6.47,-4.52 h 0.13 v 3.92 h 8.94 v -31.64 z m -10,24 c -0.1565,0.4325 -0.4396,0.8078 -0.8123,1.0771 -0.3728,0.2694 -0.818,0.4202 -1.2777,0.4329 -2.95,0 -3.09,-4.64 -3.09,-7.25 0.0154,-1.8464 0.1759,-3.6887 0.48,-5.51 0.28,-1.8 1,-3.13 2.66,-3.13 0.4046,0.0065 0.8009,0.1165 1.151,0.3196 0.3501,0.2031 0.6424,0.4924 0.849,0.8404 0.5099,1.0845 0.7106,2.2888 0.58,3.48 v 6 c 0.1567,1.2651 -0.0263,2.5491 -0.53,3.72 z"
       fill="#003368"
       id="path2" />
    <path
       d="m 122.87,68.7099 v -10.39 c 0,-4.23 0.38,-8.06 -2.81,-10.78 -0.404,-0.3436 -0.839,-0.6483 -1.3,-0.91 -1.812,1.3487 -4.022,2.0527 -6.28,2 -4.17,0 -6.92,-0.56 -8.4,-1.71 l -0.3,-0.24 v -0.07 c -1.411,0.7822 -2.621,1.8811 -3.536,3.2102 -0.9142,1.3292 -1.5078,2.8524 -1.734,4.4498 l 8.66,1 c -0.001,-0.4722 0.097,-0.9394 0.288,-1.3714 0.191,-0.432 0.47,-0.8192 0.819,-1.1367 0.35,-0.3175 0.762,-0.5582 1.21,-0.7067 0.449,-0.1485 0.923,-0.2013 1.393,-0.1552 2.28,0 2.86,1 2.86,3.72 v 0.28 c -3.261,0.1536 -6.484,0.7732 -9.57,1.84 -1.885,0.6703 -3.514,1.9141 -4.6561,3.557 -1.1424,1.6428 -1.7418,3.6021 -1.7139,5.603 0,5.92 4,8.93 8.47,8.93 1.638,0.0756 3.261,-0.3289 4.672,-1.164 1.411,-0.835 2.547,-2.064 3.268,-3.536 -0.007,1.3802 0.103,2.7585 0.33,4.12 h 9.09 c -0.613,-2.1231 -0.87,-4.333 -0.76,-6.54 z m -9.13,-6.81 c 0,3.25 0,6.9 -3.62,6.9 -1.47,0 -2.47,-0.81 -2.47,-2.73 0,-3.59 3.8,-4.46 6.09,-4.75 z"
       fill="#003368"
       id="path4" />
    <path
       d="m 15.75,44.98 c -3.24,0 -5.9,1.22 -6.9,4.82 H 8.76 V 45.56 H 0 v 39 H 9.42 V 72.01 c 0.5965,1.147 1.4991,2.1065 2.6075,2.7719 1.1085,0.6655 2.3797,1.0109 3.6725,0.9981 3.38,0 5.9,-2.2 7.47,-5.74 1.2231,-3.1882 1.8043,-6.5866 1.71,-10 0,-6.93 -2.29,-15.06 -9.13,-15.06 z M 14.6,66.04 c -0.38,1.57 -1.23,2.43 -2.56,2.43 -2.29,0 -2.57,-2.72 -2.57,-4.81 v -7.08 c -0.1323,-1.0351 0.06728,-2.0856 0.57,-3 0.2246,-0.3661 0.537,-0.6704 0.909,-0.8852 0.3719,-0.2148 0.7916,-0.3333 1.221,-0.3448 3,0 2.95,5.86 2.95,8.29 0.0231,1.8135 -0.1513,3.6242 -0.52,5.4 z"
       fill="#003368"
       id="path6" />
    <path
       d="m 34.5,51.6499 h -0.09 v -6.09 h -8 v 29.64 h 9.42 v -12.88 c -0.1248,-1.727 0.0997,-3.4615 0.66,-5.1 0.76,-1.68 2.33,-2 3.86,-2 0.6107,0.0102 1.2169,0.1078 1.8,0.29 v -10.41 l -1.28,-0.12 c -3.8,-0.34 -5.56,2.56 -6.37,6.67 z"
       fill="#003368"
       id="path8" />
    <path
       d="m 202.39,47.5399 c -0.69,-0.8249 -1.558,-1.4835 -2.537,-1.9268 -0.98,-0.4432 -2.048,-0.6596 -3.123,-0.6332 -1.538,-0.0732 -3.061,0.3278 -4.363,1.1488 -1.302,0.821 -2.32,2.0223 -2.917,3.4412 -0.531,-1.3524 -1.457,-2.5135 -2.657,-3.3319 -1.201,-0.8184 -2.62,-1.2561 -4.073,-1.2561 -1.453,0 -2.872,0.4377 -4.073,1.2561 -1.2,0.8184 -2.126,1.9795 -2.657,3.3319 h -0.09 v -4 h -8.56 v 29.63 h 9.22 v -17.8 c 0,-2.21 0.19,-4.24 2.43,-4.24 2,0 2.14,2.38 2.14,4.24 v 17.8 h 9.23 v -16.47 c 0,-2.38 -0.1,-5.39 2.56,-5.39 2.19,0 2,2.14 2,4.06 v 17.8 h 9.25 v -19.43 c 0,-3.13 0,-6.03 -1.78,-8.23 z"
       fill="#003368"
       id="path10" />
    <path
       d="m 151.89,44.9798 c -1.851,-0.0129 -3.68,0.3934 -5.351,1.1883 -1.672,0.7949 -3.141,1.9579 -4.299,3.4017 -2.373,3.241 -3.61,7.1743 -3.52,11.19 -0.133,4.0765 1.274,8.0536 3.94,11.14 1.262,1.3085 2.79,2.3317 4.48,3.001 1.69,0.6692 3.504,0.9689 5.32,0.879 5.76,0 11,-3.3 12.46,-10.5 l -8.89,-0.69 c -0.38,2.55 -1.57,3.59 -3.71,3.59 -2.85,0 -3.71,-2.32 -3.71,-5.51 h 16.31 v -1.56 c 0,-9.75 -4.94,-16.13 -13.03,-16.13 z m -3.28,11.92 c 0,-2.72 0.9,-5.1 3.38,-5.1 2.66,0 3.42,2.2 3.42,5.1 z"
       fill="#003368"
       id="path12" />
    <path
       d="m 57.94,53.4799 c 1.1,1.7 1.12,4.79 1.12,6.76 0,7.94 -1.57,8.52 -3.28,8.52 -1.71,0 -3.28,-0.58 -3.28,-8.52 0,-2 0,-5.06 1.12,-6.76 h -0.07 v -8.3 c -6.47,1.09 -11.13,6.91 -11.13,15.46 0,9 5.94,15.14 13.36,15.14 7.42,0 13.39,-6.15 13.39,-15.14 0.0212,-2.4472 -0.4199,-4.8764 -1.3,-7.16 z"
       fill="#003368"
       id="path14" />
    <path
       d="m 136.67,45.5598 h -9.42 v 27.21 c 0,2.43 -0.14,4.29 -2.66,4.29 -0.695,-0.0391 -1.374,-0.2159 -2,-0.52 v 8.36 c 1.897,0.3552 3.82,0.5492 5.75,0.58 1.345,0.073 2.686,-0.2114 3.885,-0.8244 1.2,-0.613 2.216,-1.5327 2.945,-2.6656 1.62,-2.61 1.48,-6.15 1.48,-9.22 z"
       fill="#003368"
       id="path16" />
    <path
       d="m 25.36,11.92 h -8.19 l -5.7,8 -2.05,3.31 V 1.77002 H 0 V 41.56 h 9.42 v -8.18 l 2.38,-3.71 4.56,11.89 h 9.85 L 18.03,22.13 Z"
       fill="#ff1e00"
       id="path18" />
    <path
       d="m 41.67,11.8999 v 17.07 c 0.0545,1.0668 -0.1158,2.1333 -0.5,3.13 -0.1692,0.4755 -0.4766,0.8895 -0.8829,1.1889 -0.4063,0.2994 -0.8929,0.4704 -1.3971,0.4911 -2.14,0 -2.1,-2 -2.1,-3.94 v -17.94 H 27.4 v 20.49 c 0,2.79 0.19,5.4 1.9,7.48 0.6784,0.7568 1.5167,1.3531 2.4542,1.7457 0.9374,0.3926 1.9505,0.5717 2.9658,0.5243 1.6695,0.0789 3.3151,-0.4214 4.6581,-1.4164 1.3431,-0.995 2.3011,-2.4234 2.7119,-4.0436 h 0.08 v 4.88 h 8.89 v -29.66 z"
       fill="#ff1e00"
       id="path20" />
    <path
       d="m 97.55,11.8999 v 17.07 c 0.0609,1.0654 -0.1026,2.1318 -0.48,3.13 -0.1692,0.4755 -0.4766,0.8895 -0.8829,1.1889 -0.4063,0.2994 -0.8929,0.4704 -1.3971,0.4911 -2.14,0 -2.09,-2 -2.09,-3.94 v -17.94 h -9.42 v 20.49 c 0,2.79 0.19,5.4 1.9,7.48 0.6797,0.7551 1.5183,1.3503 2.4554,1.7428 0.9372,0.3924 1.9496,0.5725 2.9646,0.5272 1.6708,0.0794 3.3178,-0.4206 4.6625,-1.4155 1.3447,-0.9948 2.3046,-2.4235 2.7175,-4.0445 h 0.09 v 4.88 h 5.71 v -5.92 h 2.62 c 0.21,0 0.38,0 0.56,0 v -23.74 z"
       fill="#ffcd00"
       id="path22" />
    <path
       d="m 71.3,11.3398 c -3.24,0 -5.9,1.22 -6.9,4.81 h -0.1 v -4.25 h -8.75 v 39.58 h 9.42 v -13.11 c 0.5965,1.1471 1.499,2.1065 2.6075,2.772 1.1085,0.6654 2.3797,1.0109 3.6725,0.998 3.37,0 5.9,-2.21 7.46,-5.74 1.2312,-3.1861 1.8159,-6.5855 1.72,-10 0,-6.94 -2.26,-15.06 -9.13,-15.06 z m -1.13,21.05 c -0.38,1.57 -1.23,2.44 -2.57,2.44 -2.28,0 -2.56,-2.73 -2.56,-4.81 v -7.12 c -0.1275,-1.0349 0.0718,-2.0839 0.57,-3 0.2239,-0.3562 0.5312,-0.6526 0.8953,-0.8635 0.3642,-0.2108 0.7742,-0.3297 1.1947,-0.3465 3,0 2.95,5.85 2.95,8.29 0.033,1.8153 -0.1279,3.6289 -0.48,5.41 z"
       fill="#ffcd00"
       id="path24" />
    <path
       d="m 182.96,11.3398 c -1.533,-0.075 -3.052,0.322 -4.352,1.1374 -1.3,0.8155 -2.318,2.01 -2.918,3.4226 -0.531,-1.3524 -1.457,-2.5135 -2.657,-3.3319 -1.201,-0.8184 -2.62,-1.2561 -4.073,-1.2561 -1.453,0 -2.872,0.4377 -4.073,1.2561 -1.2,0.8184 -2.126,1.9795 -2.657,3.3319 h -0.06 v -4 h -8.6 v 29.66 h 9.23 v -17.81 c 0,-2.2 0.19,-4.23 2.42,-4.23 2,0 2.14,2.38 2.14,4.23 v 17.81 h 9.23 v -16.47 c 0,-2.38 -0.09,-5.4 2.57,-5.4 2.19,0 2,2.15 2,4.06 v 17.81 h 9.22 v -19.43 c 0,-3.13 0,-6 -1.76,-8.24 -0.69,-0.8248 -1.557,-1.4827 -2.537,-1.9243 -0.981,-0.4417 -2.048,-0.6556 -3.123,-0.6257 z"
       fill="#007ec3"
       id="path26" />
    <path
       d="m 201.63,15.6699 c 0,-1.51 -1.63,-1.51 -1.92,-1.51 h -2.64 v 5.06 h 1.54 v -1.83 h 0.71 l 0.8,1.83 h 1.51 l -0.94,-2.19 c 0.283,-0.0948 0.527,-0.2785 0.696,-0.5236 0.17,-0.2452 0.255,-0.5386 0.244,-0.8364 z m -2.45,0.69 h -0.57 v -1.24 h 0.66 c 0.66,0 0.87,0.23 0.87,0.53 0.03,0.62 -0.6,0.71 -0.97,0.71 z"
       fill="#007ec3"
       id="path28" />
    <path
       d="m 199.25,11.5498 c -1.015,0 -2.006,0.3009 -2.85,0.8646 -0.844,0.5637 -1.501,1.3649 -1.89,2.3022 -0.388,0.9374 -0.489,1.9689 -0.291,2.964 0.198,0.9952 0.686,1.9092 1.404,2.6267 0.717,0.7174 1.631,1.206 2.626,1.4039 0.995,0.198 2.027,0.0964 2.964,-0.2919 0.938,-0.3883 1.739,-1.0458 2.302,-1.8894 0.564,-0.8436 0.865,-1.8355 0.865,-2.8501 0.001,-0.674 -0.13,-1.3417 -0.388,-1.9647 -0.257,-0.623 -0.635,-1.1891 -1.112,-1.6657 -0.476,-0.4766 -1.042,-0.8544 -1.665,-1.1118 -0.623,-0.2573 -1.291,-0.3891 -1.965,-0.3878 z m 0,8.86 c -0.738,0 -1.459,-0.2187 -2.072,-0.6286 -0.614,-0.4099 -1.092,-0.9924 -1.374,-1.674 -0.282,-0.6815 -0.356,-1.4315 -0.212,-2.1551 0.144,-0.7235 0.499,-1.3881 1.02,-1.9098 0.522,-0.5216 1.187,-0.8769 1.91,-1.0208 0.724,-0.1439 1.474,-0.0701 2.155,0.2122 0.682,0.2824 1.265,0.7604 1.674,1.3738 0.41,0.6134 0.629,1.3346 0.629,2.0723 -0.003,0.9885 -0.396,1.9357 -1.095,2.6346 -0.699,0.6989 -1.647,1.0928 -2.635,1.0954 z"
       fill="#007ec3"
       id="path30" />
    <path
       d="m 150.58,27.4599 c 0,-9.74 -4.95,-16.12 -13,-16.12 -1.855,-0.0211 -3.69,0.3783 -5.368,1.168 -1.679,0.7898 -3.156,1.9495 -4.322,3.392 -2.369,3.243 -3.606,7.1749 -3.52,11.19 -0.125,4.0857 1.305,8.0667 4,11.14 1.26,1.3114 2.787,2.3372 4.478,3.0082 1.691,0.6711 3.505,0.9718 5.322,0.8818 5.75,0 11,-3.31 12.46,-10.5 l -8.9,-0.7 c -0.38,2.56 -1.57,3.6 -3.71,3.6 -2.85,0 -3.71,-2.32 -3.71,-5.51 h 16.32 z m -16.32,-4.23 c 0,-2.73 0.91,-5.1 3.38,-5.1 2.66,0 3.42,2.2 3.42,5.1 z"
       fill="#8cc63f"
       id="path32" />
    <path
       d="m 116.17,0 c -1.015,0 -2.006,0.300869 -2.85,0.86456 -0.844,0.56369 -1.501,1.36489 -1.89,2.30227 -0.388,0.93739 -0.489,1.96886 -0.291,2.96398 0.197,0.99513 0.686,1.9092 1.404,2.62665 0.717,0.71744 1.631,1.20603 2.626,1.40394 0.995,0.198 2.027,0.0964 2.964,-0.2919 0.938,-0.38828 1.739,-1.0458 2.302,-1.88942 C 120.999,7.13645 121.3,6.14462 121.3,5.13 121.3,3.76944 120.759,2.4646 119.797,1.50254 118.835,0.54048 117.531,0 116.17,0 Z"
       fill="#8cc63f"
       id="path34" />
    <path
       d="m 120.8,11.8999 h -9.41 v 22 c 0,2.43 -0.15,4.29 -2.67,4.29 -0.869,-0.0247 -1.731,-0.1523 -2.57,-0.38 v 8.18 c 2.071,0.5034 4.2,0.7287 6.33,0.67 1.353,0.0693 2.7,-0.2219 3.904,-0.8439 1.203,-0.6219 2.22,-1.5523 2.946,-2.6961 1.62,-2.61 1.47,-6.15 1.47,-9.22 z"
       fill="#8cc63f"
       id="path36" />
  </g>
  <defs
     id="defs43">
    <clipPath
       id="clip0">
      <rect
         width="204.38"
         height="85.490997"
         fill="#ffffff"
         id="rect40"
         x="0"
         y="0" />
    </clipPath>
  </defs>
</svg>
