<?xml version="1.0" encoding="UTF-8" standalone="no"?>
<!DOCTYPE svg PUBLIC "-//W3C//DTD SVG 1.1//EN" "http://www.w3.org/Graphics/SVG/1.1/DTD/svg11.dtd">
<svg width="100%" height="100%" viewBox="0 0 940 760" version="1.1" xmlns="http://www.w3.org/2000/svg" xmlns:xlink="http://www.w3.org/1999/xlink" xml:space="preserve" xmlns:serif="http://www.serif.com/" style="fill-rule:evenodd;clip-rule:evenodd;stroke-linejoin:round;stroke-miterlimit:2;">
    <g id="Artboard1" transform="matrix(0.94,0,0,0.791307,0,188.99)">
        <rect x="0" y="-238.833" width="1000" height="960.436" style="fill:none;"/>
        <clipPath id="_clip1">
            <rect x="0" y="-238.833" width="1000" height="960.436"/>
        </clipPath>
        <g clip-path="url(#_clip1)">
            <g id="text-KUPIFY" serif:id="text KUPIFY" transform="matrix(0.500618,0,0,0.492662,-851.169,-4115.27)">
                <g id="Tekst">
                    <path id="text-KUPIFY1" serif:id="text KUPIFY" d="M2028.01,9785.36L1953.65,9785.36L1777.6,9576.9C1771.03,9569.06 1767,9563.76 1765.52,9561.01L1764.25,9561.01L1764.25,9785.36L1710.86,9785.36L1710.86,9329.66L1764.25,9329.66L1764.25,9543.85L1765.52,9543.85C1768.49,9539.19 1772.51,9534 1777.6,9528.27L1947.93,9329.66L2014.34,9329.66L1818.91,9548.3L2028.01,9785.36ZM2421.74,9601.05C2421.74,9729.01 2364.01,9792.99 2248.55,9792.99C2137.96,9792.99 2082.67,9731.44 2082.67,9608.36L2082.67,9329.66L2136.05,9329.66L2136.05,9604.86C2136.05,9698.29 2175.46,9745 2254.27,9745C2330.32,9745 2368.35,9699.88 2368.35,9609.63L2368.35,9329.66L2421.74,9329.66L2421.74,9601.05ZM2588.89,9613.12L2588.89,9785.36L2535.51,9785.36L2535.51,9329.66L2660.71,9329.66C2709.44,9329.66 2747.15,9341.53 2773.84,9365.25C2800.75,9388.98 2814.2,9422.45 2814.2,9465.67C2814.2,9508.89 2799.26,9544.27 2769.39,9571.81C2739.73,9599.35 2699.59,9613.12 2648.95,9613.12L2588.89,9613.12ZM2588.89,9377.97L2588.89,9564.82L2644.82,9564.82C2681.68,9564.82 2709.76,9556.45 2729.03,9539.72C2748.53,9522.77 2758.27,9498.93 2758.27,9468.22C2758.27,9408.05 2722.68,9377.97 2651.49,9377.97L2588.89,9377.97ZM2953.39,9785.36L2900,9785.36L2900,9329.66L2953.39,9329.66L2953.39,9785.36ZM3304.54,9377.97L3126.58,9377.97L3126.58,9535.58L3291.19,9535.58L3291.19,9583.57L3126.58,9583.57L3126.58,9785.36L3073.19,9785.36L3073.19,9329.66L3304.54,9329.66L3304.54,9377.97ZM3687.14,9329.66L3536.83,9616.94L3536.83,9785.36L3483.45,9785.36L3483.45,9618.21L3336.95,9329.66L3397.65,9329.66L3499.65,9535.58C3500.93,9538.13 3504.63,9547.45 3510.78,9563.55L3511.73,9563.55C3513.85,9556.35 3517.87,9547.02 3523.81,9535.58L3630.58,9329.66L3687.14,9329.66Z" style="fill:rgb(43,161,167);"/>
                </g>
            </g>
            <g id="rect1" transform="matrix(0.596389,0,0,0.581317,-1110.25,-1264.07)">
                <path d="M2085,1800L3315,1800C3326.93,1800 3338.38,1804.74 3346.82,1813.18C3355.26,1821.62 3360,1833.07 3360,1845L3360,2755C3360,2766.93 3355.26,2778.38 3346.82,2786.82C3338.38,2795.26 3326.93,2800 3315,2800L2085,2800C2073.07,2800 2061.62,2795.26 2053.18,2786.82C2044.74,2778.38 2040,2766.93 2040,2755L2040,1845C2040,1833.07 2044.74,1821.62 2053.18,1813.18C2061.62,1804.74 2073.07,1800 2085,1800Z" style="fill:white;stroke:rgb(249,176,0);stroke-width:78.81px;"/>
            </g>
            <g id="path5" transform="matrix(0.989362,0,0,2.70639,5.31915,-964.093)">
                <path d="M9.338,492.113C4.215,492.114 -0,496.329 -0,501.452C-0,501.452 -0,501.453 0,501.453C0,506.576 4.215,510.791 9.338,510.791L990.662,510.791C995.785,510.791 1000,506.576 1000,501.453C1000,501.453 1000,501.452 1000,501.452C1000,496.329 995.785,492.114 990.662,492.113L9.338,492.113Z" style="fill:rgb(249,176,0);fill-rule:nonzero;"/>
            </g>
            <g id="kolica" transform="matrix(0.5063,0,0,0.641647,-1156.13,-1441.95)">
                <g id="path2" transform="matrix(1,0,0,1,584.763,95.5537)">
                    <path d="M2243.9,1976.53C2233.63,1975.55 2224.38,1983.2 2223.4,1993.47C2223.34,1994.06 2223.32,1994.65 2223.32,1995.25C2223.32,2004.89 2230.74,2013.06 2240.34,2013.97L2365.27,2025.87C2375.1,2026.8 2383.07,2033.8 2385.27,2043.43L2473.63,2430.16C2479.47,2455.72 2502.42,2474.02 2528.64,2474.02L2930.6,2474.02C2930.6,2474.02 2930.6,2474.02 2930.6,2474.02C2940.91,2474.02 2949.4,2465.53 2949.4,2455.22C2949.4,2455.22 2949.4,2455.22 2949.4,2455.22C2949.4,2444.9 2940.91,2436.41 2930.6,2436.41C2930.6,2436.41 2930.6,2436.41 2930.6,2436.41L2528.64,2436.41C2519.76,2436.41 2512.27,2430.45 2510.29,2421.78L2421.93,2035.05C2416.15,2009.76 2394.66,1990.89 2368.84,1988.43L2243.9,1976.53Z" style="fill:rgb(43,161,167);fill-rule:nonzero;"/>
                </g>
                <g id="path3" transform="matrix(0.998761,0,0,0.740946,588.107,709.947)">
                    <path d="M2513.31,2370.41L2891.01,2372.91C2908.51,2373.03 2923.91,2360.96 2927.99,2343.93L2980.13,2126.08C2981.83,2119 2980.2,2111.52 2975.73,2105.78C2971.25,2100.04 2964.39,2096.64 2957.12,2096.55L2437.13,2090.47L2478.42,2340.61C2481.23,2357.64 2496.05,2370.29 2513.31,2370.41Z" style="fill:rgb(43,161,167);"/>
                </g>
                <g id="circle3" transform="matrix(1,0,0,1,584.68,87.716)">
                    <circle cx="2840.74" cy="2540" r="52.336" style="fill:rgb(43,161,167);"/>
                </g>
                <g id="circle4" transform="matrix(1,0,0,1,583.458,87.716)">
                    <circle cx="2587.66" cy="2540" r="52.336" style="fill:rgb(43,161,167);"/>
                </g>
            </g>
        </g>
    </g>
</svg>
